PathFileType	4	(X/Y/Z)	/Users/niels/Desktop/University/Third Semester/Perception and Action/Exam/Gymnastics Motion Tracking/Code for Gym Tracking/Analyzed Data/Webcam_Backflip/id19_2_trajectory_Sports2D/id19_2_trajectory_Sports2D_px_person00.trc
DataRate	CameraRate	NumFrames	NumMarkers	Units	OrigDataRate	OrigDataStartFrame	OrigNumFrames
29.714285714285715	29.714285714285715	9	22	m	29.714285714285715	78	105
Frame#	Time	Hip			RHip			RKnee			RAnkle			RBigToe			RSmallToe			RHeel			LHip			LKnee			LAnkle			LBigToe			LSmallToe			LHeel			Neck			Head			Nose			RShoulder			RElbow			RWrist			LShoulder			LElbow			LWrist		
		X1	Y1	Z1	X2	Y2	Z2	X3	Y3	Z3	X4	Y4	Z4	X5	Y5	Z5	X6	Y6	Z6	X7	Y7	Z7	X8	Y8	Z8	X9	Y9	Z9	X10	Y10	Z10	X11	Y11	Z11	X12	Y12	Z12	X13	Y13	Z13	X14	Y14	Z14	X15	Y15	Z15	X16	Y16	Z16	X17	Y17	Z17	X18	Y18	Z18	X19	Y19	Z19	X20	Y20	Z20	X21	Y21	Z21	X22	Y22	Z22
78	2.625	0.3563910984788056	-0.6619917200600399	0.0	0.3378843489460748	-0.6583312750034777	0.0	0.32115791722126374	-0.791690787075318	0.0	0.37231722589073735	-0.9091830740243992	0.0	0.3216514570139888	-0.9485976182513243	0.0	0.3248727645902715	-0.9410048529178877	0.0	0.3856065462049947	-0.9268706313915394	0.0	0.3704778430540284	-0.6623739611820666	0.0	0.36448369595540586	-0.8019804780034144	0.0	0.39030024367641575	-0.9382019399827648	0.0	0.3304592059965864	-0.966801666589016	0.0	0.3468084212658598	-0.9726280623460495	0.0	0.4026249480412026	-0.9565970051209485	0.0	0.3634209518492809	-0.4844219513014246	0.0	0.34432060471425563	-0.3954911445992505	0.0	0.33295952491588615	-0.4488898073919394	0.0	0.3502547197572501	-0.5023065373255883	0.0	0.33740456301944954	-0.570397557917239	0.0	0.2969852859322532	-0.55197024829063	0.0	0.3783433307367434	-0.5083784926596738	0.0	0.350381454956207	-0.5936771592935374	0.0	0.28425381670076966	-0.559848359308536	0.0
79	2.658653846153846	0.35623225090991034	-0.6615011459158169	0.0	0.3376591778260587	-0.6578552541156485	0.0	0.3141090029734055	-0.7905389408185222	0.0	0.3698680816843248	-0.9063080465336472	0.0	0.3210149345873312	-0.947885581314533	0.0	0.32413703175541636	-0.9404078227085289	0.0	0.3840867778032162	-0.9239291271042123	0.0	0.37063775661572756	-0.6620264054447039	0.0	0.3636568683322554	-0.8024457405112857	0.0	0.3900943808583651	-0.93830639667697	0.0	0.33102090048534866	-0.9668025634891665	0.0	0.34740671984132476	-0.9727753425855892	0.0	0.4026438883479236	-0.9565922493752014	0.0	0.3626734023651196	-0.484123977355172	0.0	0.3414473639707769	-0.39590021602720343	0.0	0.33056225856951604	-0.4490388419503312	0.0	0.35037124427991473	-0.5023338842281124	0.0	0.33875914382674194	-0.5709170127411659	0.0	0.2974566621155011	-0.5524831925640371	0.0	0.37682092137771933	-0.5080741881994938	0.0	0.3496622917640418	-0.5940806219899473	0.0	0.2834648565082169	-0.5604068488400883	0.0
80	2.692307692307692	0.35606463349351075	-0.6610319942154264	0.0	0.33740863190679987	-0.6572917571657253	0.0	0.308530322491499	-0.7893308404702934	0.0	0.3664816697662241	-0.9043802867866768	0.0	0.3190658181011297	-0.9472580871319465	0.0	0.32208571325358715	-0.9398716021977249	0.0	0.38156257520260256	-0.922296061625588	0.0	0.37065226012950525	-0.6615840339345923	0.0	0.3629226536548575	-0.8027534020867576	0.0	0.38986061365420993	-0.9382090990398487	0.0	0.33164133575461185	-0.9668724593616217	0.0	0.34796582461199815	-0.9729336014438597	0.0	0.40257954568520943	-0.9564918151842904	0.0	0.36201145386765954	-0.4839329911825281	0.0	0.3387740332812541	-0.3962806180241306	0.0	0.32813292766390484	-0.44920081836575226	0.0	0.350629873202865	-0.5023653405937565	0.0	0.3397037390331459	-0.5715613313397916	0.0	0.2981795898307602	-0.5532157220069935	0.0	0.37528385133066455	-0.5077705815332386	0.0	0.3489162304643953	-0.5944295271789739	0.0	0.2828628916776066	-0.5610573480658574	0.0
81	2.7259615384615383	0.35582493175577967	-0.66058139593991	0.0	0.3369895934455895	-0.6566227353797325	0.0	0.30494068376627154	-0.7881059176592908	0.0	0.3622469411647946	-0.9037324333818256	0.0	0.3154009752962094	-0.9466893614357945	0.0	0.3183845170964842	-0.9393629930379538	0.0	0.3780367696714998	-0.9222980408953811	0.0	0.3704219253553589	-0.6610660411090944	0.0	0.3620785962435392	-0.8027155104200481	0.0	0.3895857881157805	-0.937884897878077	0.0	0.33225124218907903	-0.96698490379173	0.0	0.34828403193430446	-0.9730806098650154	0.0	0.402397158382461	-0.9562581712459285	0.0	0.36139704669489525	-0.48387844020641	0.0	0.3363529024243935	-0.3965552292464277	0.0	0.3256864020418946	-0.4493884873655582	0.0	0.3510034326876335	-0.502438403247907	0.0	0.34039108005133945	-0.5726177321179867	0.0	0.2993862572458229	-0.5543064123939407	0.0	0.37378798706314575	-0.5075680209687627	0.0	0.34808237299206196	-0.5947076961733038	0.0	0.2824162777001434	-0.5617521917361376	0.0
82	2.7596153846153846	0.35538141188762684	-0.6602044047724503	0.0	0.33631733375540074	-0.6559121372273057	0.0	0.3035470237133123	-0.7869854062528001	0.0	0.3575168453837745	-0.9044360153030679	0.0	0.31005700426987726	-0.9461558172230394	0.0	0.31310556019186186	-0.9388634214438418	0.0	0.37379683351204757	-0.9239006731181832	0.0	0.36980744684492295	-0.660500895539089	0.0	0.3610416804917182	-0.8023322634403451	0.0	0.3892660298221981	-0.9373358662927487	0.0	0.33279237409001805	-0.967132786716997	0.0	0.3482010164358951	-0.9732200383832504	0.0	0.40207745336704215	-0.9558808841076972	0.0	0.3607351303950127	-0.4839558539304518	0.0	0.33425918634716045	-0.3966576644277133	0.0	0.323181003076845	-0.4495741060223782	0.0	0.35142917945605434	-0.5025467610270087	0.0	0.34085757791227994	-0.5740537114201291	0.0	0.3009348744124009	-0.555622233692435	0.0	0.3723759959525941	-0.5075140771219326	0.0	0.3471015054428079	-0.5949526213714388	0.0	0.28198484454994543	-0.5623926698953173	0.0
83	2.793269230769231	0.35457203282479627	-0.659979831942377	0.0	0.3353911459561084	-0.6552893986278964	0.0	0.30417792082515344	-0.7861246948780193	0.0	0.35288103782780844	-0.9062143593377223	0.0	0.3037750822334499	-0.9456435236622862	0.0	0.30697521221028734	-0.9383655240844156	0.0	0.3694093937032098	-0.9266167422005179	0.0	0.36866644677508387	-0.659946811998353	0.0	0.3598472285947782	-0.8017676004161387	0.0	0.3889188455692869	-0.936614192676017	0.0	0.3332210465045187	-0.9672945497965564	0.0	0.34768165489061814	-0.9733405008862979	0.0	0.40163372384194784	-0.955384239299962	0.0	0.3599745448821691	-0.48417337862456594	0.0	0.332592069551217	-0.3965887240321236	0.0	0.3206355942278082	-0.44971623578157655	0.0	0.35181356640559325	-0.5026842447342575	0.0	0.3409440441513595	-0.5756509079256349	0.0	0.3022765458209227	-0.5567946583373284	0.0	0.3710788568999643	-0.5076306604065123	0.0	0.3458912578489016	-0.5952169952177144	0.0	0.28137669616389716	-0.5628509879725314	0.0
84	2.8269230769230766	0.35332139834915427	-0.6599363283408533	0.0	0.334278004251437	-0.6548496888455151	0.0	0.3063320338215898	-0.7856490043153955	0.0	0.34900342384431	-0.9084850882162857	0.0	0.29781788455941893	-0.9451390801264513	0.0	0.30120065402738755	-0.9378582587573204	0.0	0.3655523573896607	-0.9296285278296196	0.0	0.3669771066939731	-0.6594731177159826	0.0	0.3586101765655129	-0.8011927290839613	0.0	0.3885778878718222	-0.9358312489912526	0.0	0.33348378167040227	-0.9674041490290013	0.0	0.34683881024055985	-0.973405709245312	0.0	0.40110554312548985	-0.9548265849799678	0.0	0.35915221041234735	-0.4845648310023935	0.0	0.3314581321183736	-0.3964353304193444	0.0	0.31821427199368607	-0.4498224092726257	0.0	0.3520709033105815	-0.5029121567263506	0.0	0.3403745707942704	-0.5772125071855353	0.0	0.3027857744070708	-0.5573828248832041	0.0	0.3699222547505023	-0.5079868108353337	0.0	0.3442489990097319	-0.5955158177783827	0.0	0.28041324757447533	-0.5630085455738226	0.0
85	2.860576923076923	0.35169769156644126	-0.6600539057282759	0.0	0.3330606835666235	-0.6545997783652024	0.0	0.3093722957007224	-0.785569508060026	0.0	0.34634087761366616	-0.9106332859368959	0.0	0.2933113789150776	-0.9446629435866195	0.0	0.2968496363032627	-0.9373590994997762	0.0	0.36270516335873104	-0.9321741437613255	0.0	0.36486514322302127	-0.6591155254300126	0.0	0.35749058336507294	-0.8006827525907998	0.0	0.38827129249458264	-0.9351180858102558	0.0	0.33354007275373226	-0.9674066444184459	0.0	0.3458836432791352	-0.9733731050634279	0.0	0.40055078154381973	-0.954282147230868	0.0	0.35834952746938686	-0.4851517070851156	0.0	0.33094619797923913	-0.3962969767553553	0.0	0.31615207475519236	-0.44995462703702116	0.0	0.35221318376324395	-0.5033491392082251	0.0	0.33897870603272057	-0.578665461451856	0.0	0.3021638271404884	-0.5570763103490933	0.0	0.36891564812442396	-0.508670236350634	0.0	0.34183116102270794	-0.5958177084404647	0.0	0.2789557120613223	-0.5627523747094927	0.0
86	2.894230769230769	0.349857988594464	-0.6603025568413446	0.0	0.33180206201453016	-0.6544845730856425	0.0	0.3127095545827483	-0.7857868407776838	0.0	0.3449335417808348	-0.9122849141591834	0.0	0.2906885247877468	-0.9442623547152842	0.0	0.29432690469936046	-0.9369093380586264	0.0	0.36092982972271104	-0.9338600022039479	0.0	0.36249745457049753	-0.6588647333145982	0.0	0.3566473590622447	-0.800228722378168	0.0	0.38800396977868273	-0.934558885969719	0.0	0.33341775389776235	-0.967305940372939	0.0	0.3450281781317259	-0.97320663854122	0.0	0.4000353467487287	-0.9537960931794582	0.0	0.35766039078778583	-0.4859199011780208	0.0	0.33107513325493987	-0.39620989199887463	0.0	0.31459715230659074	-0.4501597929719572	0.0	0.3523976602954689	-0.5040634382796104	0.0	0.33688331749091455	-0.580040663397224	0.0	0.30058104082441206	-0.5558721129889161	0.0	0.3680227900892157	-0.5096988032480224	0.0	0.33832676600544875	-0.5960786917676071	0.0	0.27693485757765574	-0.5619675671350806	0.0
